<svg width="16" height="16" viewBox="0 0 16 16" fill="none" xmlns="http://www.w3.org/2000/svg">
<g clip-path="url(#clip0_248_5)">
<path d="M6.98271 4.16195V3.43044C6.38501 2.85009 5.98016 2.07861 5.29554 1.59035C4.51711 1.03607 3.56145 0.836249 2.62316 0.975254C1.81693 1.09515 0.908181 1.28628 0.117588 0.996105C0.0463479 0.970041 -0.0214172 1.03954 0.00638389 1.10905C0.246168 1.71546 1.20009 3.56944 3.82903 3.77274C5.77858 3.9239 6.5657 4.03337 6.98271 4.16195Z" fill="black"/>
<path d="M15.8808 0.998058C15.0902 1.28823 14.1814 1.0971 13.3752 0.977207C12.4369 0.838202 11.4812 1.03802 10.7028 1.59231C10.0182 2.07882 9.61337 2.8503 9.01562 3.43239V4.1639C9.43264 4.03532 10.2198 3.92412 12.1693 3.77295C14.7965 3.56966 15.7505 1.71567 15.9937 1.111C16.0215 1.0415 15.952 0.971994 15.8808 0.998058Z" fill="black"/>
<path d="M7.28678 2.7376C7.37541 2.81926 7.47791 2.88703 7.59085 2.93394V6.55503L7.28678 6.41081L6.9827 6.2666L5.5944 5.61153H6.59175C6.76551 5.61153 6.9132 5.49859 6.96533 5.34221C6.97924 5.30225 6.98618 5.26054 6.98618 5.21711V4.82789C6.98618 4.78445 6.97924 4.74101 6.96533 4.70279C6.9132 4.5464 6.76551 4.43346 6.59175 4.43346H4.88893C4.67 4.43346 4.49451 4.61069 4.49451 4.82789V6.13454C4.49451 6.29092 4.5866 6.43168 4.72734 6.49422L6.65083 7.35952L5.46407 8.06845C5.34418 8.13971 5.27118 8.26827 5.27118 8.40728V8.58798C5.27118 8.74089 5.35982 8.8799 5.49882 8.94592L6.74118 9.52976L5.92974 9.98327C5.80463 10.0528 5.72818 10.1848 5.72818 10.3273V10.5167C5.72818 10.6679 5.81506 10.8069 5.95059 10.8729L6.80721 11.2882L6.03052 11.8268C5.92452 11.8998 5.86023 12.0214 5.86023 12.1517V12.4019C5.86023 12.5618 5.95754 12.706 6.10523 12.7668L6.82808 13.0657L6.52922 13.3628C6.4545 13.4375 6.4128 13.5366 6.4128 13.6426C6.4128 13.799 6.50489 13.9397 6.64563 14.0022L6.71166 14.0318C6.7968 14.07 6.89237 14.077 6.98098 14.0509C7.00357 14.044 7.02616 14.0353 7.04875 14.0248L7.28506 13.9067L7.58913 13.7555V14.6955C7.58913 14.9075 7.75941 15.0778 7.9714 15.0778H8.02178C8.23375 15.0778 8.40405 14.9075 8.40405 14.6955V13.759L8.70812 13.9102L8.94443 14.0266C8.96528 14.037 8.98787 14.0457 9.0122 14.0526C9.10081 14.0787 9.19638 14.0718 9.28152 14.0335L9.34755 14.004C9.49003 13.9397 9.58036 13.799 9.58036 13.6443C9.58036 13.5401 9.53868 13.4393 9.46397 13.3646L9.17032 13.0657L9.89314 12.7669C10.0408 12.706 10.1382 12.5618 10.1382 12.402V12.15C10.1382 12.0197 10.0756 11.8998 9.96788 11.8251L9.19118 11.2864L10.0478 10.8712C10.1833 10.8051 10.2702 10.6679 10.2702 10.515V10.3256C10.2702 10.1831 10.1938 10.0511 10.0687 9.98155L9.25721 9.52978L10.4996 8.94594C10.6386 8.88167 10.7272 8.74091 10.7272 8.588V8.40729C10.7272 8.26829 10.6542 8.13973 10.5343 8.06847L9.34757 7.35954L11.2728 6.49597C11.4153 6.4317 11.5056 6.29094 11.5056 6.13631V4.82966C11.5056 4.61073 11.3284 4.43524 11.1112 4.43524L9.41012 4.43002C9.23636 4.43002 9.08867 4.54296 9.03654 4.69934C9.02264 4.73931 9.01569 4.78101 9.01569 4.82619V5.2154C9.01569 5.25884 9.02264 5.30228 9.03654 5.34224C9.08867 5.49863 9.23636 5.61157 9.41012 5.61157L10.404 5.61678L9.01395 6.26837L8.70988 6.41259L8.4058 6.5568V2.93398C8.51875 2.88533 8.62126 2.8193 8.70988 2.73763C8.85583 2.6021 8.96356 2.42313 9.01395 2.22331C9.0348 2.14165 9.04523 2.05824 9.04523 1.96963C9.04523 1.88275 9.0348 1.79761 9.01395 1.71594C8.98789 1.61343 8.94792 1.51612 8.89406 1.42751C8.70988 1.12517 8.37802 0.921875 7.99748 0.921875C7.61693 0.921875 7.28507 1.12343 7.10089 1.42751C7.04701 1.51612 7.00706 1.61343 6.981 1.71594C6.96015 1.79761 6.94972 1.88101 6.94972 1.96963C6.94972 2.05651 6.96015 2.14165 6.981 2.22331C7.03311 2.4231 7.14084 2.60033 7.28678 2.7376ZM7.59085 10.7443L6.97924 10.4176L7.59085 10.091V10.7443ZM6.73944 8.46463L7.59085 8.0337V8.89555L6.73944 8.46463ZM6.97924 12.1969L7.59085 11.8702V12.5236L6.97924 12.1969ZM8.40579 12.5236V11.872L9.01741 12.1986L8.40579 12.5236ZM8.40579 10.7443V10.0927L9.01741 10.4194L8.40579 10.7443ZM9.25719 8.46463L8.40579 8.89555V8.0337L9.25719 8.46463Z" fill="black"/>
</g>
<defs>
<clipPath id="clip0_248_5">
<rect width="16" height="16" fill="white"/>
</clipPath>
</defs>
</svg>
